<svg xmlns="http://www.w3.org/2000/svg" enable-background="new 0 0 64 64" viewBox="0 0 64 64"><path d="M26.862 44.034l-.065-.11 1.721-1.02.062.105c.314.524.647 1.038.991 1.543.172-.508.295-1.026.361-1.553h-.862v-2h.868c-.132-1.041-.466-2.063-1.013-3.007-.203-.35-.194-.82.051-1.142.514-.672 1.065-1.324 1.635-1.961-.292-.194-.576-.411-.834-.669s-.475-.542-.669-.834c-.637.57-1.289 1.121-1.961 1.635-.179.136-.393.205-.607.205-.174 0-.349-.045-.505-.137-.952-.557-1.985-.898-3.036-1.032v.87h-2v-.862c-.526.067-1.044.19-1.552.362.506.346 1.021.679 1.547.994l.101.06-1.02 1.721-.105-.062c-1.81-1.086-3.51-2.345-5.083-3.749-.194.291-.409.573-.666.83s-.539.473-.83.666c1.404 1.572 2.663 3.272 3.746 5.078l.065.11-1.721 1.02L15.42 40.99c-.314-.524-.647-1.038-.991-1.543-.172.508-.295 1.026-.361 1.553h.862v2H14.06c.132 1.041.466 2.063 1.013 3.007.203.35.194.82-.051 1.142-.514.672-1.065 1.324-1.635 1.961.292.194.576.411.834.669s.475.542.669.834c.637-.57 1.289-1.121 1.961-1.635.323-.245.763-.273 1.112-.068.952.557 1.985.898 3.036 1.032v-.87h2v.862c.526-.067 1.044-.19 1.552-.362-.506-.346-1.022-.679-1.547-.994l-.101-.06 1.02-1.721.105.062c1.81 1.086 3.51 2.345 5.083 3.749.194-.291.409-.573.666-.83s.539-.473.83-.666C29.204 47.54 27.946 45.84 26.862 44.034zM17.05 45.535l-1.414-1.414 1.415-1.414 1.414 1.414L17.05 45.535zM19.879 38.465l1.414 1.414-1.414 1.414-1.414-1.414L19.879 38.465zM21.293 46.949l-1.414-1.414 1.414-1.414 1.414 1.414L21.293 46.949zM24.828 43.414L23.414 42l1.414-1.414L26.242 42 24.828 43.414zM24.828 39.172l-1.414-1.414 1.414-1.415 1.414 1.414L24.828 39.172zM30.485 53.312c.13.131.397.171.719.106.469-.094.98-.39 1.402-.812.423-.422.719-.934.812-1.402.063-.32.024-.589-.105-.719 0 0 0 0-.001 0-.088-.089-.241-.136-.432-.136-.088 0-.184.01-.285.03-.47.094-.98.39-1.403.812s-.719.934-.812 1.403C30.316 52.915 30.355 53.184 30.485 53.312zM33.312 33.515c.131-.13.17-.398.106-.719-.094-.469-.39-.98-.812-1.402-.422-.423-.934-.719-1.402-.812-.102-.021-.197-.03-.285-.03-.19 0-.345.047-.434.136 0 0 0 0 0 .001-.13.129-.169.397-.105.717.094.47.39.98.812 1.403s.934.719 1.403.812C32.918 33.686 33.185 33.645 33.312 33.515zM12.808 51.192c-.423-.423-.934-.719-1.403-.812-.102-.021-.197-.03-.285-.03-.19 0-.344.047-.432.136-.001 0-.001 0-.001 0-.13.13-.169.398-.105.719.094.469.39.98.812 1.402.422.423.934.719 1.402.812.321.064.589.024.719-.105s.169-.398.105-.718C13.526 52.126 13.23 51.615 12.808 51.192z"/><path d="M22,23C11.523,23,3,31.523,3,42s8.523,19,19,19s19-8.523,19-19S32.477,23,22,23z M31.941,41h2.002c-0.046-0.558-0.116-1.114-0.239-1.658l1.951-0.439c0.45,1.997,0.457,4.109,0.019,6.109l-1.953-0.428c0.114-0.521,0.181-1.051,0.225-1.584h-2.008c-0.118,1.178-0.441,2.335-0.98,3.421c0.538,0.676,1.11,1.325,1.702,1.955c0.81-0.053,1.552,0.178,2.068,0.695c0,0,0,0,0.001,0c0.612,0.613,0.85,1.533,0.651,2.524c-0.172,0.859-0.654,1.721-1.359,2.425c-0.704,0.705-1.565,1.188-2.425,1.359c-0.229,0.046-0.454,0.068-0.673,0.068c-0.728,0-1.381-0.249-1.852-0.721c-0.517-0.516-0.748-1.256-0.695-2.067c-0.63-0.593-1.279-1.164-1.955-1.703c-1.088,0.54-2.245,0.863-3.421,0.982v2.004c0.558-0.046,1.114-0.116,1.658-0.239l0.439,1.951c-1.013,0.229-2.056,0.343-3.098,0.343c-1.014,0-2.026-0.108-3.012-0.324l0.428-1.953c0.521,0.114,1.051,0.181,1.584,0.225v-1.999c-1.18-0.12-2.346-0.439-3.44-0.984c-0.668,0.533-1.31,1.106-1.936,1.694c0.054,0.813-0.177,1.554-0.695,2.071c-0.472,0.471-1.124,0.72-1.852,0.72c-0.219,0-0.443-0.022-0.673-0.068c-0.859-0.172-1.721-0.654-2.425-1.359c-0.705-0.704-1.188-1.565-1.359-2.425c-0.198-0.991,0.039-1.911,0.651-2.524c0.001,0,0.001,0,0.001,0c0.517-0.517,1.259-0.749,2.07-0.695c0.59-0.627,1.163-1.27,1.696-1.938c-0.542-1.098-0.859-2.263-0.98-3.438h-2.003c0.046,0.558,0.116,1.113,0.239,1.657l-1.951,0.439c-0.45-1.996-0.457-4.108-0.019-6.107l1.953,0.428c-0.114,0.52-0.181,1.05-0.225,1.583h2.008c0.118-1.178,0.441-2.335,0.98-3.421c-0.538-0.675-1.108-1.323-1.699-1.952c-0.073,0.005-0.148,0.022-0.22,0.022c-0.728,0-1.38-0.25-1.852-0.721c-0.612-0.613-0.85-1.533-0.651-2.524c0.172-0.859,0.654-1.721,1.359-2.425c0.704-0.705,1.565-1.188,2.425-1.359c0.987-0.198,1.91,0.039,2.524,0.651c0,0.001,0,0.001,0,0.001c0.517,0.516,0.748,1.255,0.695,2.067c0.63,0.593,1.279,1.164,1.955,1.703c1.088-0.539,2.244-0.863,3.421-0.982v-2.005c-0.533,0.044-1.063,0.111-1.584,0.224l-0.428-1.953c2-0.437,4.114-0.432,6.108,0.019l-0.439,1.951c-0.544-0.123-1.099-0.193-1.657-0.239v1.997c1.18,0.12,2.346,0.439,3.44,0.984c0.668-0.533,1.31-1.106,1.936-1.694c-0.054-0.813,0.177-1.554,0.695-2.07c0,0,0,0,0-0.001c0.614-0.612,1.532-0.849,2.524-0.651c0.859,0.172,1.721,0.654,2.425,1.359c0.705,0.704,1.188,1.565,1.359,2.425c0.198,0.991-0.039,1.911-0.652,2.524c-0.471,0.472-1.123,0.721-1.851,0.721c-0.073,0-0.149-0.018-0.223-0.023c-0.589,0.626-1.161,1.267-1.693,1.935C31.503,38.66,31.82,39.824,31.941,41z"/><path d="M13.515,30.688C13.515,30.687,13.515,30.687,13.515,30.688c-0.089-0.09-0.243-0.137-0.434-0.137c-0.088,0-0.184,0.01-0.285,0.03c-0.469,0.094-0.98,0.39-1.402,0.812c-0.423,0.422-0.719,0.934-0.812,1.402c-0.063,0.32-0.024,0.589,0.105,0.719s0.398,0.171,0.718,0.105c0.47-0.094,0.98-0.39,1.403-0.812s0.719-0.934,0.812-1.403C13.684,31.085,13.645,30.816,13.515,30.688z"/><rect width="1" height="2" x="45" y="41"/><rect width="2" height="2" x="48" y="41"/><rect width="2" height="2" x="52" y="41"/><path d="M56,43h1c0.553,0,1-0.447,1-1v-1h-2V43z"/><rect width="2" height="2.143" x="56" y="36.715"/><rect width="2" height="2.143" x="56" y="28.144"/><rect width="2" height="2.143" x="56" y="32.429"/><rect width="2" height="1" x="56" y="25"/><path d="M62,22l-5.6-4H61v-0.252L12.071,3.357c-1.712-0.505-3.565-0.472-5.263,0.094L3.707,4.485C3.284,4.626,3,5.021,3,5.466c0,0.459,0.309,0.868,0.75,0.995l21.6,6.17l-2.877-1.781c-0.426-0.264-0.591-0.802-0.387-1.259s0.717-0.695,1.195-0.551l17,5c0.125,0.036,0.241,0.097,0.343,0.178L45.352,18h5.315L58,22H62z"/><polygon points="59.59 7.584 58.191 7.118 50.989 12.72 56.249 14.266"/><polygon points="28.819 15.703 28.265 17.367 36.162 20 37 20 37 19.843 31.591 16.495"/><polygon points="29.827 13.051 44.284 22 47.149 22 39.529 15.904"/></svg>