<svg width="64" height="64" viewBox="0 0 64 64" fill="none" xmlns="http://www.w3.org/2000/svg">
<path d="M26.862 44.034L26.797 43.924L28.518 42.904L28.58 43.009C28.894 43.533 29.227 44.047 29.571 44.552C29.743 44.044 29.866 43.526 29.932 42.999H29.07V40.999H29.938C29.806 39.958 29.472 38.936 28.925 37.992C28.722 37.642 28.731 37.172 28.976 36.85C29.49 36.178 30.041 35.526 30.611 34.889C30.319 34.695 30.035 34.478 29.777 34.22C29.519 33.962 29.302 33.678 29.108 33.386C28.471 33.956 27.819 34.507 27.147 35.021C26.968 35.157 26.754 35.226 26.54 35.226C26.366 35.226 26.191 35.181 26.035 35.089C25.083 34.532 24.05 34.191 22.999 34.057V34.927H20.999V34.065C20.473 34.132 19.955 34.255 19.447 34.427C19.953 34.773 20.468 35.106 20.994 35.421L21.095 35.481L20.075 37.202L19.97 37.14C18.16 36.054 16.46 34.795 14.887 33.391C14.693 33.682 14.478 33.964 14.221 34.221C13.964 34.478 13.682 34.694 13.391 34.887C14.795 36.459 16.054 38.159 17.137 39.965L17.202 40.075L15.481 41.095L15.42 40.99C15.106 40.466 14.773 39.952 14.429 39.447C14.257 39.955 14.134 40.473 14.068 41H14.93V43H14.06C14.192 44.041 14.526 45.063 15.073 46.007C15.276 46.357 15.267 46.827 15.022 47.149C14.508 47.821 13.957 48.473 13.387 49.11C13.679 49.304 13.963 49.521 14.221 49.779C14.479 50.037 14.696 50.321 14.89 50.613C15.527 50.043 16.179 49.492 16.851 48.978C17.174 48.733 17.614 48.705 17.963 48.91C18.915 49.467 19.948 49.808 20.999 49.942V49.072H22.999V49.934C23.525 49.867 24.043 49.744 24.551 49.572C24.045 49.226 23.529 48.893 23.004 48.578L22.903 48.518L23.923 46.797L24.028 46.859C25.838 47.945 27.538 49.204 29.111 50.608C29.305 50.317 29.52 50.035 29.777 49.778C30.034 49.521 30.316 49.305 30.607 49.112C29.204 47.54 27.946 45.84 26.862 44.034ZM17.05 45.535L15.636 44.121L17.051 42.707L18.465 44.121L17.05 45.535ZM19.879 38.465L21.293 39.879L19.879 41.293L18.465 39.879L19.879 38.465ZM21.293 46.949L19.879 45.535L21.293 44.121L22.707 45.535L21.293 46.949ZM24.828 43.414L23.414 42L24.828 40.586L26.242 42L24.828 43.414ZM24.828 39.172L23.414 37.758L24.828 36.343L26.242 37.757L24.828 39.172ZM30.485 53.312C30.615 53.443 30.882 53.483 31.204 53.418C31.673 53.324 32.184 53.028 32.606 52.606C33.029 52.184 33.325 51.672 33.418 51.204C33.481 50.884 33.442 50.615 33.313 50.485C33.313 50.485 33.313 50.485 33.312 50.485C33.224 50.396 33.071 50.349 32.88 50.349C32.792 50.349 32.696 50.359 32.595 50.379C32.125 50.473 31.615 50.769 31.192 51.191C30.769 51.613 30.473 52.125 30.38 52.594C30.316 52.915 30.355 53.184 30.485 53.312ZM33.312 33.515C33.443 33.385 33.482 33.117 33.418 32.796C33.324 32.327 33.028 31.816 32.606 31.394C32.184 30.971 31.672 30.675 31.204 30.582C31.102 30.561 31.007 30.552 30.919 30.552C30.729 30.552 30.574 30.599 30.485 30.688C30.485 30.688 30.485 30.688 30.485 30.689C30.355 30.818 30.316 31.086 30.38 31.406C30.474 31.876 30.77 32.386 31.192 32.809C31.614 33.232 32.126 33.528 32.595 33.621C32.918 33.686 33.185 33.645 33.312 33.515ZM12.808 51.192C12.385 50.769 11.874 50.473 11.405 50.38C11.303 50.359 11.208 50.35 11.12 50.35C10.93 50.35 10.776 50.397 10.688 50.486C10.687 50.486 10.687 50.486 10.687 50.486C10.557 50.616 10.518 50.884 10.582 51.205C10.676 51.674 10.972 52.185 11.394 52.607C11.816 53.03 12.328 53.326 12.796 53.419C13.117 53.483 13.385 53.443 13.515 53.314C13.645 53.185 13.684 52.916 13.62 52.596C13.526 52.126 13.23 51.615 12.808 51.192Z" fill="white"/>
<path d="M22 23C11.523 23 3 31.523 3 42C3 52.477 11.523 61 22 61C32.477 61 41 52.477 41 42C41 31.523 32.477 23 22 23ZM31.941 41H33.943C33.897 40.442 33.827 39.886 33.704 39.342L35.655 38.903C36.105 40.9 36.112 43.012 35.674 45.012L33.721 44.584C33.835 44.063 33.902 43.533 33.946 43H31.938C31.82 44.178 31.497 45.335 30.958 46.421C31.496 47.097 32.068 47.746 32.66 48.376C33.47 48.323 34.212 48.554 34.728 49.071C34.728 49.071 34.728 49.071 34.729 49.071C35.341 49.684 35.579 50.604 35.38 51.595C35.208 52.454 34.726 53.316 34.021 54.02C33.317 54.725 32.456 55.208 31.596 55.379C31.367 55.425 31.142 55.447 30.923 55.447C30.195 55.447 29.542 55.198 29.071 54.726C28.554 54.21 28.323 53.47 28.376 52.659C27.746 52.066 27.097 51.495 26.421 50.956C25.333 51.496 24.176 51.819 23 51.938V53.942C23.558 53.896 24.114 53.826 24.658 53.703L25.097 55.654C24.084 55.883 23.041 55.997 21.999 55.997C20.985 55.997 19.973 55.889 18.987 55.673L19.415 53.72C19.936 53.834 20.466 53.901 20.999 53.945V51.946C19.819 51.826 18.653 51.507 17.559 50.962C16.891 51.495 16.249 52.068 15.623 52.656C15.677 53.469 15.446 54.21 14.928 54.727C14.456 55.198 13.804 55.447 13.076 55.447C12.857 55.447 12.633 55.425 12.403 55.379C11.544 55.207 10.682 54.725 9.978 54.02C9.273 53.316 8.79 52.455 8.619 51.595C8.421 50.604 8.658 49.684 9.27 49.071C9.271 49.071 9.271 49.071 9.271 49.071C9.788 48.554 10.53 48.322 11.341 48.376C11.931 47.749 12.504 47.106 13.037 46.438C12.495 45.34 12.178 44.175 12.057 43H10.054C10.1 43.558 10.17 44.113 10.293 44.657L8.342 45.096C7.892 43.1 7.885 40.988 8.323 38.989L10.276 39.417C10.162 39.937 10.095 40.467 10.051 41H12.059C12.177 39.822 12.5 38.665 13.039 37.579C12.501 36.904 11.931 36.256 11.34 35.627C11.267 35.632 11.192 35.649 11.12 35.649C10.392 35.649 9.74 35.399 9.268 34.928C8.656 34.315 8.418 33.395 8.617 32.404C8.789 31.545 9.271 30.683 9.976 29.979C10.68 29.274 11.541 28.791 12.401 28.62C13.388 28.422 14.311 28.659 14.925 29.271C14.925 29.272 14.925 29.272 14.925 29.272C15.442 29.788 15.673 30.527 15.62 31.339C16.25 31.932 16.899 32.503 17.575 33.042C18.663 32.503 19.819 32.179 20.996 32.06V30.055C20.463 30.099 19.933 30.166 19.412 30.279L18.984 28.326C20.984 27.889 23.098 27.894 25.092 28.345L24.653 30.296C24.109 30.173 23.554 30.103 22.996 30.057V32.054C24.176 32.174 25.342 32.493 26.436 33.038C27.104 32.505 27.746 31.932 28.372 31.344C28.318 30.531 28.549 29.79 29.067 29.274C29.067 29.274 29.067 29.274 29.067 29.273C29.681 28.661 30.599 28.424 31.591 28.622C32.45 28.794 33.312 29.276 34.016 29.981C34.721 30.685 35.204 31.546 35.375 32.406C35.573 33.397 35.336 34.317 34.723 34.93C34.252 35.402 33.6 35.651 32.872 35.651C32.799 35.651 32.723 35.633 32.649 35.628C32.06 36.254 31.488 36.895 30.956 37.563C31.503 38.66 31.82 39.824 31.941 41Z" fill="white"/>
<path d="M13.5148 30.688C13.5148 30.687 13.5148 30.687 13.5148 30.688C13.4258 30.598 13.2718 30.551 13.0808 30.551C12.9928 30.551 12.8968 30.561 12.7958 30.581C12.3268 30.675 11.8158 30.971 11.3938 31.393C10.9708 31.815 10.6748 32.327 10.5818 32.795C10.5188 33.115 10.5578 33.384 10.6868 33.514C10.8158 33.644 11.0848 33.685 11.4048 33.619C11.8748 33.525 12.3848 33.229 12.8078 32.807C13.2308 32.385 13.5268 31.873 13.6198 31.404C13.6838 31.085 13.6448 30.816 13.5148 30.688Z" fill="white"/>
<path d="M46 41H45V43H46V41Z" fill="white"/>
<path d="M50 41H48V43H50V41Z" fill="white"/>
<path d="M54 41H52V43H54V41Z" fill="white"/>
<path d="M56 43H57C57.553 43 58 42.553 58 42V41H56V43Z" fill="white"/>
<path d="M58 36.715H56V38.858H58V36.715Z" fill="white"/>
<path d="M58 28.144H56V30.287H58V28.144Z" fill="white"/>
<path d="M58 32.429H56V34.572H58V32.429Z" fill="white"/>
<path d="M58 25H56V26H58V25Z" fill="white"/>
<path d="M62 22L56.4 18H61V17.748L12.071 3.35701C10.359 2.85201 8.506 2.88501 6.808 3.45101L3.707 4.48501C3.284 4.62601 3 5.02101 3 5.46601C3 5.92501 3.309 6.33401 3.75 6.46101L25.35 12.631L22.473 10.85C22.047 10.586 21.882 10.048 22.086 9.59101C22.29 9.13401 22.803 8.89601 23.281 9.04001L40.281 14.04C40.406 14.076 40.522 14.137 40.624 14.218L45.352 18H50.667L58 22H62Z" fill="white"/>
<path d="M59.5898 7.58401L58.1908 7.11801L50.9888 12.72L56.2488 14.266L59.5898 7.58401Z" fill="white"/>
<path d="M28.8191 15.703L28.2651 17.367L36.1621 20H37.0001V19.843L31.5911 16.495L28.8191 15.703Z" fill="white"/>
<path d="M29.8271 13.051L44.2841 22H47.1491L39.5291 15.904L29.8271 13.051Z" fill="white"/>
</svg>
