<svg width="55" height="55" viewBox="0 0 55 55" fill="none" xmlns="http://www.w3.org/2000/svg">
<path d="M27.4997 0.759125C20.41 0.767197 13.6131 3.58712 8.59993 8.60026C3.58679 13.6134 0.766862 20.4104 0.758789 27.5C0.758789 34.6446 3.54191 41.3584 8.59348 46.4062C11.0699 48.8978 14.0161 50.8732 17.2615 52.2181C20.5068 53.5629 23.9867 54.2505 27.4997 54.2409C34.5893 54.2328 41.3863 51.4129 46.3994 46.3997C51.4125 41.3866 54.2325 34.5896 54.2405 27.5C54.2325 20.4104 51.4125 13.6134 46.3994 8.60026C41.3863 3.58712 34.5893 0.767197 27.4997 0.759125ZM27.4997 4.57162C33.5785 4.57869 39.4063 6.99662 43.7047 11.295C48.003 15.5934 50.421 21.4212 50.428 27.5C50.4228 33.265 48.2353 38.8143 44.3052 43.0321C41.7108 39.9608 38.3326 37.6499 34.5299 36.345C35.8501 35.2744 36.915 33.9229 37.647 32.3888C38.3791 30.8548 38.7599 29.1769 38.7618 27.4771C38.7573 25.9741 38.4563 24.4866 37.876 23.1001C37.2957 21.7135 36.4476 20.4551 35.3801 19.3969C34.3127 18.3387 33.047 17.5014 31.6555 16.9332C30.2639 16.3649 28.774 16.0768 27.2709 16.0854C25.7685 16.0899 24.2817 16.3906 22.8956 16.9704C21.5096 17.5502 20.2515 18.3977 19.1934 19.4643C18.1353 20.5309 17.2979 21.7958 16.7292 23.1864C16.1605 24.5771 15.8716 26.0662 15.8792 27.5686C15.8792 31.1104 17.5414 34.2405 20.0882 36.3297C16.3628 37.5994 13.04 39.833 10.4578 42.8034C6.66066 38.6119 4.56192 33.1557 4.57129 27.5C4.57835 21.4212 6.99628 15.5934 11.2947 11.295C15.593 6.99662 21.4208 4.57869 27.4997 4.57162ZM27.3662 19.8979C31.5485 19.8979 34.9455 23.2986 34.9455 27.5686C34.9406 29.5326 34.1735 31.418 32.8059 32.8276C31.4383 34.2371 29.577 35.0608 27.614 35.125C27.5035 35.125 27.3967 35.1021 27.2862 35.1021C27.1908 35.1021 27.0993 35.1212 27.004 35.125C25.0319 35.0478 23.167 34.2067 21.8038 32.7795C20.4406 31.3522 19.6859 29.4507 19.6993 27.4771C19.6993 23.2986 23.1 19.8979 27.37 19.8979H27.3662ZM27.0002 38.9299C27.0917 38.9337 27.1832 38.9604 27.2747 38.9604H27.3662C27.4501 38.9604 27.5187 38.9337 27.6026 38.9299C30.2623 38.9763 32.8805 39.5973 35.2778 40.7502C37.6751 41.9031 39.7948 43.5607 41.4915 45.6094C37.4956 48.7312 32.5705 50.4275 27.4997 50.4284C22.3139 50.4389 17.2802 48.6767 13.2333 45.434C14.9344 43.4343 17.0421 41.82 19.4159 40.6985C21.7897 39.577 24.3752 38.9741 27.0002 38.9299Z" fill="#FFF7F7"/>
</svg>
