<svg width="178" height="178" viewBox="0 0 178 178" fill="none" xmlns="http://www.w3.org/2000/svg">
<path d="M89 10.9692C68.3122 10.9928 48.4784 19.2214 33.8499 33.8499C19.2214 48.4784 10.9928 68.3122 10.9692 89C10.9692 109.848 19.0905 129.439 33.8311 144.169C41.0575 151.439 49.6547 157.204 59.1246 161.128C68.5946 165.052 78.7491 167.059 89 167.031C109.688 167.007 129.522 158.779 144.15 144.15C158.779 129.522 167.007 109.688 167.031 89C167.007 68.3122 158.779 48.4784 144.15 33.8499C129.522 19.2214 109.688 10.9928 89 10.9692ZM89 22.0942C106.738 22.1148 123.744 29.1704 136.287 41.7132C148.83 54.256 155.885 71.2618 155.906 89C155.891 105.823 149.507 122.016 138.039 134.323C130.468 125.361 120.611 118.618 109.514 114.81C113.367 111.686 116.474 107.742 118.61 103.266C120.746 98.7894 121.858 93.8932 121.863 88.9332C121.85 84.5472 120.972 80.2069 119.279 76.1609C117.585 72.1149 115.11 68.4428 111.996 65.3548C108.881 62.2669 105.187 59.8239 101.127 58.1657C97.0662 56.5075 92.7184 55.6668 88.3325 55.6917C83.9484 55.7048 79.6099 56.5825 75.5653 58.2744C71.5208 59.9662 67.8496 62.4392 64.762 65.5516C61.6744 68.6641 59.2309 72.3549 57.5714 76.4128C55.9119 80.4708 55.069 84.8161 55.091 89.2002C55.091 99.5354 59.9415 108.669 67.373 114.765C56.5021 118.471 46.8063 124.988 39.2712 133.656C28.1911 121.425 22.0669 105.503 22.0942 89C22.1148 71.2618 29.1704 54.256 41.7132 41.7132C54.256 29.1704 71.2618 22.1148 89 22.0942ZM88.6106 66.8167C100.815 66.8167 110.727 76.7402 110.727 89.2002C110.713 94.9312 108.475 100.433 104.484 104.546C100.493 108.659 95.0616 111.063 89.3337 111.25C89.0111 111.25 88.6996 111.183 88.377 111.183C88.0989 111.183 87.8319 111.239 87.5537 111.25C81.7989 111.025 76.3572 108.57 72.3793 104.406C68.4014 100.241 66.1992 94.6923 66.2382 88.9332C66.2382 76.7402 76.1617 66.8167 88.6217 66.8167H88.6106ZM87.5426 122.353C87.8096 122.364 88.0766 122.442 88.3436 122.442H88.6106C88.8554 122.442 89.0556 122.364 89.3004 122.353C97.0615 122.488 104.701 124.3 111.697 127.664C118.692 131.029 124.877 135.866 129.829 141.844C118.168 150.953 103.797 155.903 89 155.906C73.8676 155.936 59.1793 150.794 47.3702 141.332C52.3343 135.497 58.4844 130.786 65.4113 127.514C72.3381 124.241 79.8827 122.482 87.5426 122.353Z" fill="#979494"/>
</svg>
